<mxfile host="app.diagrams.net" modified="2023-03-15T07:10:26.194Z" agent="5.0 (Windows NT 10.0; Win64; x64) AppleWebKit/537.36 (KHTML, like Gecko) Chrome/110.0.0.0 Safari/537.36 Edg/110.0.1587.69" etag="fOXVzKzYPEmXUwmQmkEc" version="20.8.21" type="github">
  <diagram id="kgpKYQtTHZ0yAKxKKP6v" name="Page-1">
    <mxGraphModel dx="3304" dy="756" grid="1" gridSize="10" guides="1" tooltips="1" connect="1" arrows="1" fold="1" page="1" pageScale="2.2" pageWidth="850" pageHeight="1100" math="0" shadow="0">
      <root>
        <mxCell id="0" />
        <mxCell id="1" parent="0" />
        <mxCell id="3nuBFxr9cyL0pnOWT2aG-1" value="Check-In/Out" style="shape=table;childLayout=tableLayout;startSize=40;collapsible=0;recursiveResize=0;expand=0;fillColor=none;fontStyle=1;dashed=1;" parent="1" vertex="1">
          <mxGeometry x="-1870" y="70" width="1870" height="790" as="geometry" />
        </mxCell>
        <mxCell id="3nuBFxr9cyL0pnOWT2aG-3" value="Process" style="shape=tableRow;horizontal=0;swimlaneHead=0;swimlaneBody=0;top=0;left=0;bottom=0;right=0;fillColor=none;points=[[0,0.5],[1,0.5]];portConstraint=eastwest;startSize=40;collapsible=0;recursiveResize=0;expand=0;fontStyle=1;" parent="3nuBFxr9cyL0pnOWT2aG-1" vertex="1">
          <mxGeometry y="40" width="1870" height="594" as="geometry" />
        </mxCell>
        <mxCell id="3nuBFxr9cyL0pnOWT2aG-4" value="PPIC" style="swimlane;swimlaneHead=0;swimlaneBody=0;connectable=0;fillColor=none;startSize=30;collapsible=0;recursiveResize=0;expand=0;fontStyle=1;swimlaneLine=1;" parent="3nuBFxr9cyL0pnOWT2aG-3" vertex="1">
          <mxGeometry x="40" width="290" height="594" as="geometry">
            <mxRectangle width="290" height="594" as="alternateBounds" />
          </mxGeometry>
        </mxCell>
        <mxCell id="3nuBFxr9cyL0pnOWT2aG-5" style="edgeStyle=orthogonalEdgeStyle;rounded=0;orthogonalLoop=1;jettySize=auto;html=1;" parent="3nuBFxr9cyL0pnOWT2aG-4" source="3nuBFxr9cyL0pnOWT2aG-6" target="3nuBFxr9cyL0pnOWT2aG-7" edge="1">
          <mxGeometry relative="1" as="geometry" />
        </mxCell>
        <mxCell id="3nuBFxr9cyL0pnOWT2aG-6" value="Start" style="rounded=1;whiteSpace=wrap;html=1;arcSize=50;fillColor=#d5e8d4;strokeColor=#82b366;" parent="3nuBFxr9cyL0pnOWT2aG-4" vertex="1">
          <mxGeometry x="75" y="70" width="90" height="40" as="geometry" />
        </mxCell>
        <mxCell id="sVSnX-S11ZfNezMlboSL-76" style="edgeStyle=orthogonalEdgeStyle;rounded=0;orthogonalLoop=1;jettySize=auto;html=1;entryX=0.5;entryY=0;entryDx=0;entryDy=0;" parent="3nuBFxr9cyL0pnOWT2aG-4" source="3nuBFxr9cyL0pnOWT2aG-7" target="sVSnX-S11ZfNezMlboSL-9" edge="1">
          <mxGeometry relative="1" as="geometry" />
        </mxCell>
        <mxCell id="3nuBFxr9cyL0pnOWT2aG-7" value="1. Farms &amp;amp; Users collection" style="rounded=0;whiteSpace=wrap;html=1;fillColor=#dae8fc;strokeColor=#6c8ebf;" parent="3nuBFxr9cyL0pnOWT2aG-4" vertex="1">
          <mxGeometry x="50" y="150" width="140" height="70" as="geometry" />
        </mxCell>
        <mxCell id="3nuBFxr9cyL0pnOWT2aG-21" value="Farm &amp;amp; User List" style="shape=document;whiteSpace=wrap;html=1;boundedLbl=1;fillColor=#fff2cc;strokeColor=#d6b656;" parent="3nuBFxr9cyL0pnOWT2aG-4" vertex="1">
          <mxGeometry x="150" y="200" width="80" height="50" as="geometry" />
        </mxCell>
        <mxCell id="sVSnX-S11ZfNezMlboSL-9" value="2. Generate Farm QR Code&amp;nbsp;" style="rounded=0;whiteSpace=wrap;html=1;fillColor=#dae8fc;strokeColor=#6c8ebf;" parent="3nuBFxr9cyL0pnOWT2aG-4" vertex="1">
          <mxGeometry x="50" y="290" width="140" height="70" as="geometry" />
        </mxCell>
        <mxCell id="sVSnX-S11ZfNezMlboSL-75" value="Image QR Code (JPG)" style="shape=document;whiteSpace=wrap;html=1;boundedLbl=1;fillColor=#fff2cc;strokeColor=#d6b656;" parent="3nuBFxr9cyL0pnOWT2aG-4" vertex="1">
          <mxGeometry x="150" y="340" width="80" height="50" as="geometry" />
        </mxCell>
        <mxCell id="215ix36uU6ksKPvgHEUG-12" style="edgeStyle=orthogonalEdgeStyle;rounded=0;orthogonalLoop=1;jettySize=auto;html=1;entryX=0;entryY=0.5;entryDx=0;entryDy=0;" edge="1" parent="3nuBFxr9cyL0pnOWT2aG-4" source="215ix36uU6ksKPvgHEUG-7" target="3nuBFxr9cyL0pnOWT2aG-7">
          <mxGeometry relative="1" as="geometry">
            <Array as="points">
              <mxPoint x="30" y="485" />
              <mxPoint x="30" y="185" />
            </Array>
          </mxGeometry>
        </mxCell>
        <mxCell id="215ix36uU6ksKPvgHEUG-7" value="6.Update farm&lt;br&gt;&amp;nbsp;(Official farm code)" style="rounded=0;whiteSpace=wrap;html=1;fillColor=#ffe6cc;strokeColor=#d79b00;" vertex="1" parent="3nuBFxr9cyL0pnOWT2aG-4">
          <mxGeometry x="50" y="450" width="140" height="70" as="geometry" />
        </mxCell>
        <mxCell id="215ix36uU6ksKPvgHEUG-8" value="&lt;b&gt;M&lt;/b&gt;" style="rounded=0;whiteSpace=wrap;html=1;fillColor=#FF7C17;fillStyle=solid;strokeColor=none;" vertex="1" parent="3nuBFxr9cyL0pnOWT2aG-4">
          <mxGeometry x="160" y="520" width="30" height="20" as="geometry" />
        </mxCell>
        <mxCell id="3nuBFxr9cyL0pnOWT2aG-8" value="Employee visiting farm (Doctor, Technical, Supervisor)Â " style="swimlane;swimlaneHead=0;swimlaneBody=0;connectable=0;fillColor=none;startSize=30;collapsible=0;recursiveResize=0;expand=0;fontStyle=1;swimlaneLine=1;" parent="3nuBFxr9cyL0pnOWT2aG-3" vertex="1">
          <mxGeometry x="330" width="1264" height="594" as="geometry">
            <mxRectangle width="1264" height="594" as="alternateBounds" />
          </mxGeometry>
        </mxCell>
        <mxCell id="sVSnX-S11ZfNezMlboSL-181" style="edgeStyle=orthogonalEdgeStyle;rounded=0;orthogonalLoop=1;jettySize=auto;html=1;entryX=0;entryY=0.5;entryDx=0;entryDy=0;fontSize=11;" parent="3nuBFxr9cyL0pnOWT2aG-8" source="sVSnX-S11ZfNezMlboSL-15" target="sVSnX-S11ZfNezMlboSL-179" edge="1">
          <mxGeometry relative="1" as="geometry" />
        </mxCell>
        <mxCell id="sVSnX-S11ZfNezMlboSL-185" value="Yes" style="edgeLabel;html=1;align=center;verticalAlign=middle;resizable=0;points=[];fontSize=11;" parent="sVSnX-S11ZfNezMlboSL-181" vertex="1" connectable="0">
          <mxGeometry x="-0.1901" y="-1" relative="1" as="geometry">
            <mxPoint as="offset" />
          </mxGeometry>
        </mxCell>
        <mxCell id="sVSnX-S11ZfNezMlboSL-184" style="edgeStyle=orthogonalEdgeStyle;rounded=0;orthogonalLoop=1;jettySize=auto;html=1;fontSize=11;entryX=0;entryY=0.5;entryDx=0;entryDy=0;" parent="3nuBFxr9cyL0pnOWT2aG-8" source="sVSnX-S11ZfNezMlboSL-15" target="sVSnX-S11ZfNezMlboSL-109" edge="1">
          <mxGeometry relative="1" as="geometry">
            <Array as="points">
              <mxPoint x="450" y="125" />
            </Array>
            <mxPoint x="830" y="90" as="targetPoint" />
          </mxGeometry>
        </mxCell>
        <mxCell id="Pvqd0WklEzp56SBGsrRN-7" value="No" style="edgeLabel;html=1;align=center;verticalAlign=middle;resizable=0;points=[];" parent="sVSnX-S11ZfNezMlboSL-184" vertex="1" connectable="0">
          <mxGeometry x="-0.6952" relative="1" as="geometry">
            <mxPoint as="offset" />
          </mxGeometry>
        </mxCell>
        <mxCell id="sVSnX-S11ZfNezMlboSL-15" value="9.Is checked in?" style="rhombus;whiteSpace=wrap;html=1;labelBorderColor=none;sketch=0;strokeWidth=1;fillColor=#e1d5e7;strokeColor=#9673a6;" parent="3nuBFxr9cyL0pnOWT2aG-8" vertex="1">
          <mxGeometry x="390" y="225" width="120" height="80" as="geometry" />
        </mxCell>
        <mxCell id="sVSnX-S11ZfNezMlboSL-155" style="edgeStyle=orthogonalEdgeStyle;rounded=0;orthogonalLoop=1;jettySize=auto;html=1;entryX=0;entryY=0.5;entryDx=0;entryDy=0;fontSize=11;" parent="3nuBFxr9cyL0pnOWT2aG-8" source="sVSnX-S11ZfNezMlboSL-19" target="sVSnX-S11ZfNezMlboSL-15" edge="1">
          <mxGeometry relative="1" as="geometry">
            <Array as="points">
              <mxPoint x="300" y="265" />
            </Array>
          </mxGeometry>
        </mxCell>
        <mxCell id="sVSnX-S11ZfNezMlboSL-19" value="7.Scan QR code" style="rounded=0;whiteSpace=wrap;html=1;fillColor=#dae8fc;strokeColor=#6c8ebf;" parent="3nuBFxr9cyL0pnOWT2aG-8" vertex="1">
          <mxGeometry x="230" y="150" width="140" height="70" as="geometry" />
        </mxCell>
        <mxCell id="sVSnX-S11ZfNezMlboSL-89" style="edgeStyle=orthogonalEdgeStyle;rounded=0;orthogonalLoop=1;jettySize=auto;html=1;entryX=0;entryY=0.5;entryDx=0;entryDy=0;" parent="3nuBFxr9cyL0pnOWT2aG-8" source="sVSnX-S11ZfNezMlboSL-22" target="sVSnX-S11ZfNezMlboSL-48" edge="1">
          <mxGeometry relative="1" as="geometry" />
        </mxCell>
        <mxCell id="sVSnX-S11ZfNezMlboSL-22" value="14.Take Picture" style="rounded=0;whiteSpace=wrap;html=1;fillColor=#dae8fc;strokeColor=#6c8ebf;" parent="3nuBFxr9cyL0pnOWT2aG-8" vertex="1">
          <mxGeometry x="740" y="90" width="140" height="70" as="geometry" />
        </mxCell>
        <mxCell id="sVSnX-S11ZfNezMlboSL-102" style="edgeStyle=orthogonalEdgeStyle;rounded=0;orthogonalLoop=1;jettySize=auto;html=1;entryX=0;entryY=0.5;entryDx=0;entryDy=0;fontSize=11;" parent="3nuBFxr9cyL0pnOWT2aG-8" source="sVSnX-S11ZfNezMlboSL-26" target="sVSnX-S11ZfNezMlboSL-101" edge="1">
          <mxGeometry relative="1" as="geometry" />
        </mxCell>
        <mxCell id="sVSnX-S11ZfNezMlboSL-139" value="Yes" style="edgeLabel;html=1;align=center;verticalAlign=middle;resizable=0;points=[];fontSize=11;" parent="sVSnX-S11ZfNezMlboSL-102" vertex="1" connectable="0">
          <mxGeometry x="-0.2957" y="-1" relative="1" as="geometry">
            <mxPoint as="offset" />
          </mxGeometry>
        </mxCell>
        <mxCell id="215ix36uU6ksKPvgHEUG-4" style="edgeStyle=orthogonalEdgeStyle;rounded=0;orthogonalLoop=1;jettySize=auto;html=1;entryX=0.5;entryY=0;entryDx=0;entryDy=0;" edge="1" parent="3nuBFxr9cyL0pnOWT2aG-8" source="sVSnX-S11ZfNezMlboSL-26" target="215ix36uU6ksKPvgHEUG-2">
          <mxGeometry relative="1" as="geometry">
            <Array as="points">
              <mxPoint x="100" y="420" />
              <mxPoint x="100" y="420" />
            </Array>
          </mxGeometry>
        </mxCell>
        <mxCell id="215ix36uU6ksKPvgHEUG-5" value="No" style="edgeLabel;html=1;align=center;verticalAlign=middle;resizable=0;points=[];" vertex="1" connectable="0" parent="215ix36uU6ksKPvgHEUG-4">
          <mxGeometry x="-0.2" y="1" relative="1" as="geometry">
            <mxPoint as="offset" />
          </mxGeometry>
        </mxCell>
        <mxCell id="sVSnX-S11ZfNezMlboSL-26" value="4.Farm exist?" style="rhombus;whiteSpace=wrap;html=1;labelBorderColor=none;sketch=0;strokeWidth=1;fillColor=#e1d5e7;strokeColor=#9673a6;" parent="3nuBFxr9cyL0pnOWT2aG-8" vertex="1">
          <mxGeometry x="40" y="300" width="120" height="80" as="geometry" />
        </mxCell>
        <mxCell id="sVSnX-S11ZfNezMlboSL-93" style="edgeStyle=orthogonalEdgeStyle;rounded=0;orthogonalLoop=1;jettySize=auto;html=1;entryX=0;entryY=0.5;entryDx=0;entryDy=0;" parent="3nuBFxr9cyL0pnOWT2aG-8" source="sVSnX-S11ZfNezMlboSL-31" target="sVSnX-S11ZfNezMlboSL-45" edge="1">
          <mxGeometry relative="1" as="geometry" />
        </mxCell>
        <mxCell id="sVSnX-S11ZfNezMlboSL-94" value="Yes" style="edgeLabel;html=1;align=center;verticalAlign=middle;resizable=0;points=[];" parent="sVSnX-S11ZfNezMlboSL-93" vertex="1" connectable="0">
          <mxGeometry x="-0.1859" relative="1" as="geometry">
            <mxPoint as="offset" />
          </mxGeometry>
        </mxCell>
        <mxCell id="sVSnX-S11ZfNezMlboSL-31" value="16.Allowed distance?" style="rhombus;whiteSpace=wrap;html=1;labelBorderColor=none;sketch=0;strokeWidth=1;fillColor=#e1d5e7;strokeColor=#9673a6;" parent="3nuBFxr9cyL0pnOWT2aG-8" vertex="1">
          <mxGeometry x="930" y="290" width="120" height="80" as="geometry" />
        </mxCell>
        <mxCell id="sVSnX-S11ZfNezMlboSL-45" value="18.Save Information" style="rounded=0;whiteSpace=wrap;html=1;fillColor=#dae8fc;strokeColor=#6c8ebf;" parent="3nuBFxr9cyL0pnOWT2aG-8" vertex="1">
          <mxGeometry x="1110" y="295" width="140" height="70" as="geometry" />
        </mxCell>
        <mxCell id="sVSnX-S11ZfNezMlboSL-91" style="edgeStyle=orthogonalEdgeStyle;rounded=0;orthogonalLoop=1;jettySize=auto;html=1;entryX=0.5;entryY=0;entryDx=0;entryDy=0;" parent="3nuBFxr9cyL0pnOWT2aG-8" source="sVSnX-S11ZfNezMlboSL-48" target="sVSnX-S11ZfNezMlboSL-31" edge="1">
          <mxGeometry relative="1" as="geometry" />
        </mxCell>
        <mxCell id="sVSnX-S11ZfNezMlboSL-92" value="Yes" style="edgeLabel;html=1;align=center;verticalAlign=middle;resizable=0;points=[];" parent="sVSnX-S11ZfNezMlboSL-91" vertex="1" connectable="0">
          <mxGeometry x="-0.2356" relative="1" as="geometry">
            <mxPoint as="offset" />
          </mxGeometry>
        </mxCell>
        <mxCell id="sVSnX-S11ZfNezMlboSL-191" style="edgeStyle=orthogonalEdgeStyle;rounded=0;orthogonalLoop=1;jettySize=auto;html=1;entryX=0;entryY=0.5;entryDx=0;entryDy=0;fontSize=11;" parent="3nuBFxr9cyL0pnOWT2aG-8" source="sVSnX-S11ZfNezMlboSL-48" target="sVSnX-S11ZfNezMlboSL-190" edge="1">
          <mxGeometry relative="1" as="geometry">
            <Array as="points">
              <mxPoint x="1010" y="95" />
            </Array>
          </mxGeometry>
        </mxCell>
        <mxCell id="sVSnX-S11ZfNezMlboSL-192" value="No" style="edgeLabel;html=1;align=center;verticalAlign=middle;resizable=0;points=[];fontSize=11;" parent="sVSnX-S11ZfNezMlboSL-191" vertex="1" connectable="0">
          <mxGeometry x="-0.8054" y="2" relative="1" as="geometry">
            <mxPoint x="14" y="-6" as="offset" />
          </mxGeometry>
        </mxCell>
        <mxCell id="sVSnX-S11ZfNezMlboSL-48" value="15. Farm has location?" style="rhombus;whiteSpace=wrap;html=1;labelBorderColor=none;sketch=0;strokeWidth=1;fillColor=#e1d5e7;strokeColor=#9673a6;" parent="3nuBFxr9cyL0pnOWT2aG-8" vertex="1">
          <mxGeometry x="930" y="85" width="120" height="80" as="geometry" />
        </mxCell>
        <mxCell id="sVSnX-S11ZfNezMlboSL-71" style="edgeStyle=orthogonalEdgeStyle;rounded=0;orthogonalLoop=1;jettySize=auto;html=1;entryX=0;entryY=0.5;entryDx=0;entryDy=0;" parent="3nuBFxr9cyL0pnOWT2aG-8" source="sVSnX-S11ZfNezMlboSL-57" target="sVSnX-S11ZfNezMlboSL-19" edge="1">
          <mxGeometry relative="1" as="geometry" />
        </mxCell>
        <mxCell id="sVSnX-S11ZfNezMlboSL-72" value="Yes" style="edgeLabel;html=1;align=center;verticalAlign=middle;resizable=0;points=[];" parent="sVSnX-S11ZfNezMlboSL-71" vertex="1" connectable="0">
          <mxGeometry x="-0.149" relative="1" as="geometry">
            <mxPoint as="offset" />
          </mxGeometry>
        </mxCell>
        <mxCell id="sVSnX-S11ZfNezMlboSL-137" style="edgeStyle=orthogonalEdgeStyle;rounded=0;orthogonalLoop=1;jettySize=auto;html=1;entryX=0.5;entryY=0;entryDx=0;entryDy=0;fontSize=11;" parent="3nuBFxr9cyL0pnOWT2aG-8" source="sVSnX-S11ZfNezMlboSL-57" target="sVSnX-S11ZfNezMlboSL-26" edge="1">
          <mxGeometry relative="1" as="geometry" />
        </mxCell>
        <mxCell id="sVSnX-S11ZfNezMlboSL-138" value="No" style="edgeLabel;html=1;align=center;verticalAlign=middle;resizable=0;points=[];fontSize=11;" parent="sVSnX-S11ZfNezMlboSL-137" vertex="1" connectable="0">
          <mxGeometry x="-0.2504" y="-1" relative="1" as="geometry">
            <mxPoint as="offset" />
          </mxGeometry>
        </mxCell>
        <mxCell id="sVSnX-S11ZfNezMlboSL-57" value="3.Farm has QR?" style="rhombus;whiteSpace=wrap;html=1;labelBorderColor=none;sketch=0;strokeWidth=1;fillColor=#e1d5e7;strokeColor=#9673a6;" parent="3nuBFxr9cyL0pnOWT2aG-8" vertex="1">
          <mxGeometry x="40" y="145" width="120" height="80" as="geometry" />
        </mxCell>
        <mxCell id="sVSnX-S11ZfNezMlboSL-154" style="edgeStyle=orthogonalEdgeStyle;rounded=0;orthogonalLoop=1;jettySize=auto;html=1;entryX=0;entryY=0.5;entryDx=0;entryDy=0;fontSize=11;" parent="3nuBFxr9cyL0pnOWT2aG-8" source="sVSnX-S11ZfNezMlboSL-101" target="sVSnX-S11ZfNezMlboSL-15" edge="1">
          <mxGeometry relative="1" as="geometry">
            <Array as="points">
              <mxPoint x="300" y="265" />
            </Array>
          </mxGeometry>
        </mxCell>
        <mxCell id="sVSnX-S11ZfNezMlboSL-101" value="8.Choose farm from farm list" style="rounded=0;whiteSpace=wrap;html=1;fillColor=#ffe6cc;strokeColor=#d79b00;" parent="3nuBFxr9cyL0pnOWT2aG-8" vertex="1">
          <mxGeometry x="230" y="305" width="140" height="70" as="geometry" />
        </mxCell>
        <mxCell id="sVSnX-S11ZfNezMlboSL-158" style="edgeStyle=orthogonalEdgeStyle;rounded=0;orthogonalLoop=1;jettySize=auto;html=1;entryX=0;entryY=0.5;entryDx=0;entryDy=0;fontSize=11;" parent="3nuBFxr9cyL0pnOWT2aG-8" source="sVSnX-S11ZfNezMlboSL-109" target="sVSnX-S11ZfNezMlboSL-22" edge="1">
          <mxGeometry relative="1" as="geometry" />
        </mxCell>
        <mxCell id="sVSnX-S11ZfNezMlboSL-109" value="11.Check In" style="rounded=0;whiteSpace=wrap;html=1;fillColor=#dae8fc;strokeColor=#6c8ebf;" parent="3nuBFxr9cyL0pnOWT2aG-8" vertex="1">
          <mxGeometry x="560" y="90" width="140" height="70" as="geometry" />
        </mxCell>
        <mxCell id="Pvqd0WklEzp56SBGsrRN-8" style="edgeStyle=orthogonalEdgeStyle;rounded=0;orthogonalLoop=1;jettySize=auto;html=1;entryX=0.5;entryY=1;entryDx=0;entryDy=0;" parent="3nuBFxr9cyL0pnOWT2aG-8" source="sVSnX-S11ZfNezMlboSL-173" target="sVSnX-S11ZfNezMlboSL-15" edge="1">
          <mxGeometry relative="1" as="geometry" />
        </mxCell>
        <mxCell id="sVSnX-S11ZfNezMlboSL-173" value="13.Delete last check in&amp;nbsp;" style="rounded=0;whiteSpace=wrap;html=1;fillColor=#dae8fc;strokeColor=#6c8ebf;" parent="3nuBFxr9cyL0pnOWT2aG-8" vertex="1">
          <mxGeometry x="740" y="450" width="140" height="70" as="geometry" />
        </mxCell>
        <mxCell id="sVSnX-S11ZfNezMlboSL-180" style="edgeStyle=orthogonalEdgeStyle;rounded=0;orthogonalLoop=1;jettySize=auto;html=1;entryX=0.5;entryY=1;entryDx=0;entryDy=0;fontSize=11;" parent="3nuBFxr9cyL0pnOWT2aG-8" source="sVSnX-S11ZfNezMlboSL-179" target="sVSnX-S11ZfNezMlboSL-109" edge="1">
          <mxGeometry relative="1" as="geometry" />
        </mxCell>
        <mxCell id="sVSnX-S11ZfNezMlboSL-187" value="Yes" style="edgeLabel;html=1;align=center;verticalAlign=middle;resizable=0;points=[];fontSize=11;" parent="sVSnX-S11ZfNezMlboSL-180" vertex="1" connectable="0">
          <mxGeometry x="-0.2239" y="-1" relative="1" as="geometry">
            <mxPoint as="offset" />
          </mxGeometry>
        </mxCell>
        <mxCell id="Pvqd0WklEzp56SBGsrRN-10" style="edgeStyle=orthogonalEdgeStyle;rounded=0;orthogonalLoop=1;jettySize=auto;html=1;entryX=0;entryY=0.5;entryDx=0;entryDy=0;" parent="3nuBFxr9cyL0pnOWT2aG-8" source="sVSnX-S11ZfNezMlboSL-179" target="Pvqd0WklEzp56SBGsrRN-9" edge="1">
          <mxGeometry relative="1" as="geometry" />
        </mxCell>
        <mxCell id="Pvqd0WklEzp56SBGsrRN-11" value="No" style="edgeLabel;html=1;align=center;verticalAlign=middle;resizable=0;points=[];" parent="Pvqd0WklEzp56SBGsrRN-10" vertex="1" connectable="0">
          <mxGeometry x="-0.25" relative="1" as="geometry">
            <mxPoint as="offset" />
          </mxGeometry>
        </mxCell>
        <mxCell id="sVSnX-S11ZfNezMlboSL-179" value="&lt;span style=&quot;font-size: 11px;&quot;&gt;10.Is checked out?&lt;/span&gt;" style="rhombus;whiteSpace=wrap;html=1;labelBorderColor=none;sketch=0;strokeWidth=1;fillColor=#e1d5e7;strokeColor=#9673a6;" parent="3nuBFxr9cyL0pnOWT2aG-8" vertex="1">
          <mxGeometry x="570" y="225" width="120" height="80" as="geometry" />
        </mxCell>
        <mxCell id="sVSnX-S11ZfNezMlboSL-193" style="edgeStyle=orthogonalEdgeStyle;rounded=0;orthogonalLoop=1;jettySize=auto;html=1;entryX=0.5;entryY=0;entryDx=0;entryDy=0;fontSize=11;" parent="3nuBFxr9cyL0pnOWT2aG-8" source="sVSnX-S11ZfNezMlboSL-190" target="sVSnX-S11ZfNezMlboSL-45" edge="1">
          <mxGeometry relative="1" as="geometry" />
        </mxCell>
        <mxCell id="sVSnX-S11ZfNezMlboSL-190" value="17.Update farm location" style="rounded=0;whiteSpace=wrap;html=1;fillColor=#dae8fc;strokeColor=#6c8ebf;" parent="3nuBFxr9cyL0pnOWT2aG-8" vertex="1">
          <mxGeometry x="1110" y="90" width="140" height="70" as="geometry" />
        </mxCell>
        <mxCell id="sVSnX-S11ZfNezMlboSL-198" value="Image (JPG)" style="shape=document;whiteSpace=wrap;html=1;boundedLbl=1;fillColor=#fff2cc;strokeColor=#d6b656;" parent="3nuBFxr9cyL0pnOWT2aG-8" vertex="1">
          <mxGeometry x="830" y="140" width="80" height="50" as="geometry" />
        </mxCell>
        <mxCell id="Pvqd0WklEzp56SBGsrRN-12" style="edgeStyle=orthogonalEdgeStyle;rounded=0;orthogonalLoop=1;jettySize=auto;html=1;entryX=0.5;entryY=1;entryDx=0;entryDy=0;" parent="3nuBFxr9cyL0pnOWT2aG-8" source="Pvqd0WklEzp56SBGsrRN-9" target="sVSnX-S11ZfNezMlboSL-22" edge="1">
          <mxGeometry relative="1" as="geometry" />
        </mxCell>
        <mxCell id="Pvqd0WklEzp56SBGsrRN-13" value="Yes" style="edgeLabel;html=1;align=center;verticalAlign=middle;resizable=0;points=[];" parent="Pvqd0WklEzp56SBGsrRN-12" vertex="1" connectable="0">
          <mxGeometry x="0.25" y="-1" relative="1" as="geometry">
            <mxPoint x="-1" y="20" as="offset" />
          </mxGeometry>
        </mxCell>
        <mxCell id="Pvqd0WklEzp56SBGsrRN-15" style="edgeStyle=orthogonalEdgeStyle;rounded=0;orthogonalLoop=1;jettySize=auto;html=1;entryX=0.5;entryY=0;entryDx=0;entryDy=0;" parent="3nuBFxr9cyL0pnOWT2aG-8" source="Pvqd0WklEzp56SBGsrRN-9" target="sVSnX-S11ZfNezMlboSL-173" edge="1">
          <mxGeometry relative="1" as="geometry" />
        </mxCell>
        <mxCell id="Pvqd0WklEzp56SBGsrRN-16" value="No" style="edgeLabel;html=1;align=center;verticalAlign=middle;resizable=0;points=[];" parent="Pvqd0WklEzp56SBGsrRN-15" vertex="1" connectable="0">
          <mxGeometry x="-0.6828" relative="1" as="geometry">
            <mxPoint y="42" as="offset" />
          </mxGeometry>
        </mxCell>
        <mxCell id="Pvqd0WklEzp56SBGsrRN-9" value="&lt;span style=&quot;font-size: 11px;&quot;&gt;12.Check Out?&lt;/span&gt;" style="rhombus;whiteSpace=wrap;html=1;labelBorderColor=none;sketch=0;strokeWidth=1;fillColor=#e1d5e7;strokeColor=#9673a6;" parent="3nuBFxr9cyL0pnOWT2aG-8" vertex="1">
          <mxGeometry x="750" y="225" width="120" height="80" as="geometry" />
        </mxCell>
        <mxCell id="snKlPP_Cd-e8GY4ZODhW-5" value="&lt;b&gt;M&lt;/b&gt;" style="rounded=0;whiteSpace=wrap;html=1;fillColor=#FF7C17;fillStyle=solid;strokeColor=none;" parent="3nuBFxr9cyL0pnOWT2aG-8" vertex="1">
          <mxGeometry x="340" y="375" width="30" height="20" as="geometry" />
        </mxCell>
        <mxCell id="215ix36uU6ksKPvgHEUG-6" style="edgeStyle=orthogonalEdgeStyle;rounded=0;orthogonalLoop=1;jettySize=auto;html=1;entryX=0.5;entryY=1;entryDx=0;entryDy=0;" edge="1" parent="3nuBFxr9cyL0pnOWT2aG-8" source="215ix36uU6ksKPvgHEUG-2" target="sVSnX-S11ZfNezMlboSL-101">
          <mxGeometry relative="1" as="geometry" />
        </mxCell>
        <mxCell id="215ix36uU6ksKPvgHEUG-2" value="5.Create new farm (Temporary farm code)" style="rounded=0;whiteSpace=wrap;html=1;fillColor=#ffe6cc;strokeColor=#d79b00;" vertex="1" parent="3nuBFxr9cyL0pnOWT2aG-8">
          <mxGeometry x="30" y="450" width="140" height="70" as="geometry" />
        </mxCell>
        <mxCell id="215ix36uU6ksKPvgHEUG-3" value="&lt;b&gt;M&lt;/b&gt;" style="rounded=0;whiteSpace=wrap;html=1;fillColor=#FF7C17;fillStyle=solid;strokeColor=none;" vertex="1" parent="3nuBFxr9cyL0pnOWT2aG-8">
          <mxGeometry x="140" y="520" width="30" height="20" as="geometry" />
        </mxCell>
        <mxCell id="3nuBFxr9cyL0pnOWT2aG-11" value="Supervisor" style="swimlane;swimlaneHead=0;swimlaneBody=0;connectable=0;fillColor=none;startSize=30;collapsible=0;recursiveResize=0;expand=0;fontStyle=1;" parent="3nuBFxr9cyL0pnOWT2aG-3" vertex="1">
          <mxGeometry x="1594" width="276" height="594" as="geometry">
            <mxRectangle width="276" height="594" as="alternateBounds" />
          </mxGeometry>
        </mxCell>
        <mxCell id="sVSnX-S11ZfNezMlboSL-200" style="edgeStyle=orthogonalEdgeStyle;rounded=0;orthogonalLoop=1;jettySize=auto;html=1;entryX=0.5;entryY=0;entryDx=0;entryDy=0;fontSize=12;" parent="3nuBFxr9cyL0pnOWT2aG-11" source="sVSnX-S11ZfNezMlboSL-54" target="sVSnX-S11ZfNezMlboSL-199" edge="1">
          <mxGeometry relative="1" as="geometry" />
        </mxCell>
        <mxCell id="sVSnX-S11ZfNezMlboSL-54" value="19.Tracking Report" style="rounded=0;whiteSpace=wrap;html=1;fillColor=#dae8fc;strokeColor=#6c8ebf;" parent="3nuBFxr9cyL0pnOWT2aG-11" vertex="1">
          <mxGeometry x="68" y="90" width="140" height="70" as="geometry" />
        </mxCell>
        <mxCell id="sVSnX-S11ZfNezMlboSL-56" value="PDF / Excel" style="shape=document;whiteSpace=wrap;html=1;boundedLbl=1;fillColor=#fff2cc;strokeColor=#d6b656;" parent="3nuBFxr9cyL0pnOWT2aG-11" vertex="1">
          <mxGeometry x="156" y="140" width="80" height="50" as="geometry" />
        </mxCell>
        <mxCell id="sVSnX-S11ZfNezMlboSL-199" value="End" style="rounded=1;whiteSpace=wrap;html=1;arcSize=50;fillColor=#ffcccc;strokeColor=#36393d;" parent="3nuBFxr9cyL0pnOWT2aG-11" vertex="1">
          <mxGeometry x="93" y="290" width="90" height="40" as="geometry" />
        </mxCell>
        <mxCell id="sVSnX-S11ZfNezMlboSL-55" style="edgeStyle=orthogonalEdgeStyle;rounded=0;orthogonalLoop=1;jettySize=auto;html=1;entryX=0;entryY=0.5;entryDx=0;entryDy=0;" parent="3nuBFxr9cyL0pnOWT2aG-3" source="sVSnX-S11ZfNezMlboSL-45" target="sVSnX-S11ZfNezMlboSL-54" edge="1">
          <mxGeometry relative="1" as="geometry" />
        </mxCell>
        <mxCell id="sVSnX-S11ZfNezMlboSL-70" style="edgeStyle=orthogonalEdgeStyle;rounded=0;orthogonalLoop=1;jettySize=auto;html=1;entryX=0;entryY=0.5;entryDx=0;entryDy=0;" parent="3nuBFxr9cyL0pnOWT2aG-3" source="3nuBFxr9cyL0pnOWT2aG-7" target="sVSnX-S11ZfNezMlboSL-57" edge="1">
          <mxGeometry relative="1" as="geometry">
            <mxPoint x="350" y="185" as="targetPoint" />
          </mxGeometry>
        </mxCell>
        <mxCell id="215ix36uU6ksKPvgHEUG-9" style="edgeStyle=orthogonalEdgeStyle;rounded=0;orthogonalLoop=1;jettySize=auto;html=1;" edge="1" parent="3nuBFxr9cyL0pnOWT2aG-3" source="215ix36uU6ksKPvgHEUG-2" target="215ix36uU6ksKPvgHEUG-7">
          <mxGeometry relative="1" as="geometry" />
        </mxCell>
        <mxCell id="215ix36uU6ksKPvgHEUG-13" style="edgeStyle=orthogonalEdgeStyle;rounded=0;orthogonalLoop=1;jettySize=auto;html=1;entryX=0.5;entryY=1;entryDx=0;entryDy=0;" edge="1" parent="3nuBFxr9cyL0pnOWT2aG-3" source="sVSnX-S11ZfNezMlboSL-31" target="sVSnX-S11ZfNezMlboSL-199">
          <mxGeometry relative="1" as="geometry">
            <Array as="points">
              <mxPoint x="1320" y="470" />
              <mxPoint x="1732" y="470" />
            </Array>
          </mxGeometry>
        </mxCell>
        <mxCell id="215ix36uU6ksKPvgHEUG-14" value="No" style="edgeLabel;html=1;align=center;verticalAlign=middle;resizable=0;points=[];" vertex="1" connectable="0" parent="215ix36uU6ksKPvgHEUG-13">
          <mxGeometry x="-0.8742" y="-1" relative="1" as="geometry">
            <mxPoint as="offset" />
          </mxGeometry>
        </mxCell>
        <mxCell id="3nuBFxr9cyL0pnOWT2aG-15" value="Barista" style="shape=tableRow;horizontal=0;swimlaneHead=0;swimlaneBody=0;top=0;left=0;bottom=0;right=0;fillColor=none;points=[[0,0.5],[1,0.5]];portConstraint=eastwest;startSize=40;collapsible=0;recursiveResize=0;expand=0;fontStyle=1;" parent="3nuBFxr9cyL0pnOWT2aG-1" vertex="1">
          <mxGeometry y="634" width="1870" height="156" as="geometry" />
        </mxCell>
        <mxCell id="3nuBFxr9cyL0pnOWT2aG-16" value="" style="swimlane;swimlaneHead=0;swimlaneBody=0;connectable=0;fillColor=none;startSize=0;collapsible=0;recursiveResize=0;expand=0;fontStyle=1;" parent="3nuBFxr9cyL0pnOWT2aG-15" vertex="1">
          <mxGeometry x="40" width="290" height="156" as="geometry">
            <mxRectangle width="290" height="156" as="alternateBounds" />
          </mxGeometry>
        </mxCell>
        <mxCell id="3nuBFxr9cyL0pnOWT2aG-18" value="" style="swimlane;swimlaneHead=0;swimlaneBody=0;connectable=0;fillColor=none;startSize=0;collapsible=0;recursiveResize=0;expand=0;fontStyle=1;" parent="3nuBFxr9cyL0pnOWT2aG-15" vertex="1">
          <mxGeometry x="330" width="1264" height="156" as="geometry">
            <mxRectangle width="1264" height="156" as="alternateBounds" />
          </mxGeometry>
        </mxCell>
        <mxCell id="3nuBFxr9cyL0pnOWT2aG-23" value="" style="swimlane;swimlaneHead=0;swimlaneBody=0;connectable=0;fillColor=none;startSize=0;collapsible=0;recursiveResize=0;expand=0;fontStyle=1;" parent="3nuBFxr9cyL0pnOWT2aG-15" vertex="1">
          <mxGeometry x="1594" width="276" height="156" as="geometry">
            <mxRectangle width="276" height="156" as="alternateBounds" />
          </mxGeometry>
        </mxCell>
        <mxCell id="EkozvVM3r3no3VzvKKDz-1" value="" style="rounded=0;whiteSpace=wrap;html=1;fillColor=#dae8fc;strokeColor=#6c8ebf;" parent="1" vertex="1">
          <mxGeometry x="-1780" y="940" width="140" height="70" as="geometry" />
        </mxCell>
        <mxCell id="EkozvVM3r3no3VzvKKDz-2" value="Represent process step." style="text;html=1;strokeColor=none;fillColor=none;align=center;verticalAlign=middle;whiteSpace=wrap;rounded=0;fontSize=18;" parent="1" vertex="1">
          <mxGeometry x="-1616" y="940" width="210" height="30" as="geometry" />
        </mxCell>
        <mxCell id="EkozvVM3r3no3VzvKKDz-3" value="Document Type" style="shape=document;whiteSpace=wrap;html=1;boundedLbl=1;fillColor=#fff2cc;strokeColor=#d6b656;" parent="1" vertex="1">
          <mxGeometry x="-1780" y="1070" width="144" height="90" as="geometry" />
        </mxCell>
        <mxCell id="EkozvVM3r3no3VzvKKDz-4" value="Represent exported document." style="text;html=1;strokeColor=none;fillColor=none;align=center;verticalAlign=middle;whiteSpace=wrap;rounded=0;fontSize=18;" parent="1" vertex="1">
          <mxGeometry x="-1610" y="1080" width="250" height="30" as="geometry" />
        </mxCell>
        <mxCell id="EkozvVM3r3no3VzvKKDz-5" value="" style="rounded=0;whiteSpace=wrap;html=1;fillColor=#ffe6cc;strokeColor=#d79b00;" parent="1" vertex="1">
          <mxGeometry x="-1780" y="1210" width="140" height="70" as="geometry" />
        </mxCell>
        <mxCell id="EkozvVM3r3no3VzvKKDz-6" value="&lt;b&gt;M&lt;/b&gt;" style="rounded=0;whiteSpace=wrap;html=1;fillColor=#FF7C17;fillStyle=solid;strokeColor=none;" parent="1" vertex="1">
          <mxGeometry x="-1670" y="1280" width="30" height="20" as="geometry" />
        </mxCell>
        <mxCell id="EkozvVM3r3no3VzvKKDz-7" value="Represent manual activity." style="text;html=1;strokeColor=none;fillColor=none;align=center;verticalAlign=middle;whiteSpace=wrap;rounded=0;fontSize=18;" parent="1" vertex="1">
          <mxGeometry x="-1630" y="1220" width="250" height="30" as="geometry" />
        </mxCell>
        <mxCell id="EkozvVM3r3no3VzvKKDz-8" value="Decision&amp;nbsp;&lt;br&gt;Box" style="rhombus;whiteSpace=wrap;html=1;labelBorderColor=none;sketch=0;strokeWidth=1;fillColor=#e1d5e7;strokeColor=#9673a6;" parent="1" vertex="1">
          <mxGeometry x="-1770" y="1350" width="120" height="80" as="geometry" />
        </mxCell>
        <mxCell id="EkozvVM3r3no3VzvKKDz-9" value="Indicates the possible decisions that can be made." style="text;html=1;strokeColor=none;fillColor=none;align=center;verticalAlign=middle;whiteSpace=wrap;rounded=0;fontSize=18;" parent="1" vertex="1">
          <mxGeometry x="-1636" y="1360" width="250" height="30" as="geometry" />
        </mxCell>
        <mxCell id="EkozvVM3r3no3VzvKKDz-10" value="Start" style="rounded=1;whiteSpace=wrap;html=1;arcSize=50;fillColor=#d5e8d4;strokeColor=#82b366;" parent="1" vertex="1">
          <mxGeometry x="-1755" y="1490" width="90" height="40" as="geometry" />
        </mxCell>
        <mxCell id="EkozvVM3r3no3VzvKKDz-11" value="Indicates the start of the process." style="text;html=1;strokeColor=none;fillColor=none;align=center;verticalAlign=middle;whiteSpace=wrap;rounded=0;fontSize=18;" parent="1" vertex="1">
          <mxGeometry x="-1636" y="1490" width="286" height="30" as="geometry" />
        </mxCell>
        <mxCell id="EkozvVM3r3no3VzvKKDz-12" value="End" style="rounded=1;whiteSpace=wrap;html=1;arcSize=50;fillColor=#ffcccc;strokeColor=#36393d;" parent="1" vertex="1">
          <mxGeometry x="-1753" y="1580" width="90" height="40" as="geometry" />
        </mxCell>
        <mxCell id="EkozvVM3r3no3VzvKKDz-13" value="Indicates the end of the process." style="text;html=1;strokeColor=none;fillColor=none;align=center;verticalAlign=middle;whiteSpace=wrap;rounded=0;fontSize=18;" parent="1" vertex="1">
          <mxGeometry x="-1636" y="1580" width="286" height="30" as="geometry" />
        </mxCell>
        <mxCell id="EkozvVM3r3no3VzvKKDz-14" value="" style="endArrow=classic;html=1;rounded=0;fontSize=18;" parent="1" edge="1">
          <mxGeometry width="50" height="50" relative="1" as="geometry">
            <mxPoint x="-1240" y="1130" as="sourcePoint" />
            <mxPoint x="-1140" y="1130" as="targetPoint" />
          </mxGeometry>
        </mxCell>
        <mxCell id="EkozvVM3r3no3VzvKKDz-15" value="" style="endArrow=none;html=1;rounded=0;fontSize=18;" parent="1" edge="1">
          <mxGeometry width="50" height="50" relative="1" as="geometry">
            <mxPoint x="-1240" y="1130" as="sourcePoint" />
            <mxPoint x="-1240" y="1070" as="targetPoint" />
          </mxGeometry>
        </mxCell>
        <mxCell id="EkozvVM3r3no3VzvKKDz-16" value="Automatically routes between the shapes it connects." style="text;html=1;strokeColor=none;fillColor=none;align=center;verticalAlign=middle;whiteSpace=wrap;rounded=0;fontSize=18;" parent="1" vertex="1">
          <mxGeometry x="-1080" y="1080" width="250" height="30" as="geometry" />
        </mxCell>
      </root>
    </mxGraphModel>
  </diagram>
</mxfile>
